<svg width="50" height="50" viewBox="0 0 50 50" fill="none" xmlns="http://www.w3.org/2000/svg">
<path d="M25.6167 47C14.0083 47 8 42.5336 8 32.6127V25C8 23.3431 9.34315 22 11 22H12C13.6569 22 15 23.3431 15 25V32.3636C15 37.9368 18.2333 40.913 25.6167 40.913C33 40.913 34.9667 37.9368 34.9667 32.3636V25C34.9667 23.3431 36.3098 22 37.9667 22H39C40.6569 22 42 23.3431 42 25V32.6127C42 42.5336 36.1667 47 25.6167 47Z" fill="#D9D9D9"/>
<path d="M21.5 32.5C21.5 31.3648 21.5 19.6332 21.5 13.9946C21.5 12.3377 20.1569 11 18.5 11H11C9.34315 11 8 9.65685 8 8C8 6.34315 9.34315 5 11 5H39C40.6569 5 42 6.34315 42 8C42 9.65685 40.6569 11 39 11H31.5146C29.8588 11 28.516 12.3361 28.5146 13.9919C28.5098 19.6296 28.5 31.3646 28.5 32.5C28.5 34 28.0198 36 25 36C21.9802 36 21.5 34 21.5 32.5Z" fill="#D9D9D9"/>
<rect x="8" y="14" width="7" height="5" rx="2.5" fill="#D9D9D9"/>
<rect x="35" y="16" width="7" height="3" rx="1.5" fill="#D9D9D9"/>
</svg>
