<svg width="50" height="50" viewBox="0 0 50 50" fill="none" xmlns="http://www.w3.org/2000/svg">
<rect width="50" height="50" rx="9.375" fill="#EEEEEE"/>
<path fill-rule="evenodd" clip-rule="evenodd" d="M42.0002 9.00003C42.0002 7.34318 40.6571 6.00003 39.0002 6.00003H11.0002C9.34339 6.00003 8.00024 7.34318 8.00024 9.00003V9.00003C8.00024 10.6569 9.34339 12 11.0002 12H19C20.6569 12 22 13.3432 22 15V23C22 24.6569 23.3431 26 25 26V26C26.6569 26 28 24.6569 28 23V15C28 13.3432 29.3431 12 31 12H39.0002C40.6571 12 42.0002 10.6569 42.0002 9.00003V9.00003Z" fill="#111111"/>
<path d="M8.00024 19.0001C8.00024 17.3432 9.34339 16.0001 11.0002 16.0001V16.0001C12.6571 16.0001 14.0002 17.3432 14.0002 19.0001V19.0001C14.0002 20.6569 12.6571 22.0001 11.0002 22.0001V22.0001C9.34339 22.0001 8.00024 20.6569 8.00024 19.0001V19.0001Z" fill="#111111"/>
<path d="M36 20.5001C36 19.6716 36.6716 19.0001 37.5 19.0001H40.5C41.3284 19.0001 42 19.6716 42 20.5001V20.5001C42 21.3285 41.3284 22.0001 40.5 22.0001H37.5C36.6716 22.0001 36 21.3285 36 20.5001V20.5001Z" fill="#111111"/>
<path d="M15.2 35.1892C16.0854 36.471 18.2712 38 25.0003 38C31.7293 38 33.9152 36.471 34.8006 35.1892C35.3043 34.4599 35.6428 33.4376 35.8283 32.0173C35.9086 31.4026 35.9727 30.6957 36.0002 30C36.066 28.3413 37.3402 27.0001 39.0002 27C40.6603 27 42.0002 28.25 42.0002 30C42.0002 31.75 41.9056 31.9039 41.7891 32.7958C41.5363 34.7318 40.9964 36.7967 39.7468 38.6057C37.1255 42.4006 32.2979 44 25.0002 44C17.7025 44 12.8751 42.4006 10.2538 38.6057C9.00419 36.7967 8.46597 34.7318 8.21313 32.7958C8.09443 31.887 8.00024 31.5 8.00024 30C8.00024 28.5 9.36113 27.0289 11.0003 27C12.6808 26.9705 13.9362 28.3254 14.0003 30.0049C14.0275 30.7203 14.0917 31.3872 14.174 32.0173C14.3595 33.4376 14.6962 34.4599 15.2 35.1892Z" fill="#111111"/>
</svg>
